<svg width="1308" height="22" viewBox="0 0 1308 22" fill="none" xmlns="http://www.w3.org/2000/svg">
<line x1="4.37114e-08" y1="12.5" x2="895" y2="12.5001" stroke="url(#paint0_linear_111_1451)"/>
<path d="M911.516 10.2986V17.8396H910.461V8.32983H911.472L911.516 10.2986ZM911.322 12.4958L910.812 12.2322C910.848 11.6697 910.953 11.1423 911.129 10.6501C911.311 10.158 911.562 9.72437 911.885 9.34937C912.207 8.97437 912.594 8.6814 913.045 8.47046C913.496 8.25952 914.009 8.15405 914.583 8.15405C915.046 8.15405 915.465 8.21851 915.84 8.34741C916.221 8.47046 916.543 8.66675 916.807 8.93628C917.076 9.19995 917.284 9.54565 917.431 9.97339C917.577 10.4011 917.65 10.9138 917.65 11.5115V17.8396H916.604V11.5466C916.604 10.9138 916.505 10.4187 916.306 10.0613C916.112 9.70386 915.84 9.44897 915.488 9.29663C915.143 9.14429 914.741 9.06812 914.284 9.06812C913.745 9.06812 913.288 9.17944 912.913 9.4021C912.544 9.6189 912.242 9.90308 912.008 10.2546C911.779 10.6003 911.609 10.9724 911.498 11.3708C911.387 11.7634 911.328 12.1384 911.322 12.4958ZM917.642 11.6697L916.938 11.6873C916.968 11.2244 917.073 10.782 917.255 10.3601C917.442 9.93823 917.697 9.56323 918.02 9.23511C918.342 8.90112 918.726 8.63745 919.171 8.44409C919.622 8.25073 920.129 8.15405 920.691 8.15405C921.184 8.15405 921.623 8.22144 922.01 8.3562C922.396 8.48511 922.722 8.69312 922.985 8.98022C923.255 9.26147 923.46 9.62183 923.601 10.0613C923.741 10.5007 923.812 11.0281 923.812 11.6433V17.8396H922.757V11.6345C922.757 10.9607 922.657 10.4392 922.458 10.0701C922.265 9.69507 921.995 9.43433 921.649 9.28784C921.304 9.14136 920.899 9.06812 920.437 9.06812C919.979 9.07397 919.578 9.15894 919.232 9.323C918.887 9.4812 918.597 9.69214 918.362 9.95581C918.134 10.2136 917.958 10.4919 917.835 10.7908C917.718 11.0896 917.653 11.3826 917.642 11.6697ZM932.267 16.1345V11.2302C932.267 10.7791 932.173 10.3894 931.985 10.0613C931.798 9.73315 931.522 9.4812 931.159 9.30542C930.796 9.12964 930.348 9.04175 929.814 9.04175C929.322 9.04175 928.883 9.12964 928.496 9.30542C928.115 9.47534 927.813 9.70679 927.591 9.99976C927.374 10.2869 927.266 10.6062 927.266 10.9578L926.211 10.949C926.211 10.5916 926.299 10.2458 926.475 9.91187C926.65 9.57788 926.899 9.27905 927.222 9.01538C927.544 8.75171 927.928 8.5437 928.373 8.39136C928.824 8.23315 929.319 8.15405 929.858 8.15405C930.538 8.15405 931.136 8.26831 931.651 8.49683C932.173 8.72534 932.58 9.06812 932.873 9.52515C933.166 9.98218 933.312 10.5564 933.312 11.2478V15.8445C933.312 16.1726 933.336 16.5125 933.383 16.864C933.436 17.2156 933.509 17.5056 933.603 17.7341V17.8396H932.486C932.416 17.6287 932.36 17.365 932.319 17.0486C932.284 16.7263 932.267 16.4216 932.267 16.1345ZM932.513 12.3025L932.53 13.1111H930.465C929.926 13.1111 929.442 13.1609 929.015 13.2605C928.593 13.3542 928.235 13.4949 927.942 13.6824C927.649 13.864 927.424 14.0837 927.266 14.3416C927.113 14.5994 927.037 14.8923 927.037 15.2205C927.037 15.5603 927.122 15.8708 927.292 16.1521C927.468 16.4333 927.714 16.6589 928.03 16.8289C928.353 16.9929 928.733 17.075 929.173 17.075C929.759 17.075 930.274 16.9666 930.72 16.7498C931.171 16.533 931.543 16.2488 931.836 15.8972C932.129 15.5457 932.325 15.1619 932.425 14.7458L932.882 15.3523C932.806 15.6453 932.665 15.947 932.46 16.2576C932.261 16.5623 932 16.8494 931.678 17.1189C931.355 17.3826 930.975 17.5994 930.535 17.7693C930.102 17.9333 929.609 18.0154 929.059 18.0154C928.438 18.0154 927.896 17.8982 927.433 17.6638C926.976 17.4294 926.618 17.1101 926.36 16.7058C926.108 16.2957 925.982 15.8328 925.982 15.3171C925.982 14.8484 926.082 14.4294 926.281 14.0603C926.48 13.6853 926.768 13.3689 927.143 13.1111C927.523 12.8474 927.98 12.6482 928.514 12.5134C929.053 12.3728 929.656 12.3025 930.324 12.3025H932.513ZM938.814 16.8904L941.776 8.32983H942.91L938.885 19.3689C938.803 19.5857 938.697 19.8259 938.568 20.0896C938.445 20.3533 938.281 20.6052 938.076 20.8455C937.877 21.0916 937.625 21.2908 937.32 21.4431C937.021 21.6013 936.655 21.6804 936.222 21.6804C936.11 21.6804 935.967 21.6658 935.791 21.6365C935.621 21.613 935.498 21.5896 935.422 21.5662L935.413 20.6785C935.478 20.696 935.571 20.7107 935.694 20.7224C935.817 20.7341 935.902 20.74 935.949 20.74C936.33 20.74 936.649 20.6755 936.907 20.5466C937.171 20.4177 937.391 20.2244 937.566 19.9666C937.742 19.7146 937.897 19.3982 938.032 19.0173L938.814 16.8904ZM936.046 8.32983L939.078 16.4949L939.359 17.5935L938.595 18.0242L934.903 8.32983H936.046ZM945.6 10.3601V17.8396H944.554V8.32983H945.556L945.6 10.3601ZM945.362 12.4958L944.896 12.2322C944.932 11.6697 945.046 11.1423 945.239 10.6501C945.433 10.158 945.693 9.72437 946.021 9.34937C946.355 8.97437 946.745 8.6814 947.19 8.47046C947.642 8.25952 948.14 8.15405 948.685 8.15405C949.159 8.15405 949.584 8.21851 949.959 8.34741C950.334 8.47632 950.653 8.6814 950.917 8.96265C951.181 9.2439 951.38 9.60425 951.515 10.0437C951.655 10.4832 951.726 11.0193 951.726 11.6521V17.8396H950.671V11.6433C950.671 10.9871 950.58 10.4744 950.398 10.1052C950.217 9.73022 949.959 9.46362 949.625 9.30542C949.291 9.14722 948.896 9.06812 948.438 9.06812C947.935 9.06812 947.492 9.17944 947.111 9.4021C946.736 9.6189 946.42 9.90308 946.162 10.2546C945.91 10.6003 945.717 10.9724 945.582 11.3708C945.447 11.7634 945.374 12.1384 945.362 12.4958ZM960.541 15.6423V8.32983H961.596V17.8396H960.585L960.541 15.6423ZM960.734 13.8845L961.279 13.8669C961.279 14.4646 961.209 15.0154 961.068 15.5193C960.928 16.0232 960.708 16.4626 960.409 16.8376C960.11 17.2126 959.724 17.5027 959.249 17.7078C958.774 17.9128 958.203 18.0154 957.535 18.0154C957.072 18.0154 956.647 17.9509 956.261 17.822C955.88 17.6873 955.552 17.4763 955.276 17.1892C955.001 16.9021 954.787 16.53 954.635 16.073C954.488 15.616 954.415 15.0623 954.415 14.4119V8.32983H955.461V14.4294C955.461 14.9392 955.517 15.364 955.628 15.7039C955.745 16.0437 955.903 16.3162 956.103 16.5212C956.308 16.7263 956.542 16.8728 956.806 16.9607C957.069 17.0486 957.354 17.0925 957.658 17.0925C958.432 17.0925 959.041 16.9431 959.486 16.6443C959.938 16.3455 960.257 15.9529 960.444 15.4666C960.638 14.9744 960.734 14.447 960.734 13.8845ZM970.525 15.9939V4.3396H971.58V17.8396H970.596L970.525 15.9939ZM963.925 13.1814V12.9968C963.925 12.2585 964.01 11.5935 964.18 11.0017C964.35 10.4041 964.593 9.89429 964.909 9.47241C965.231 9.04468 965.618 8.71948 966.069 8.49683C966.521 8.26831 967.03 8.15405 967.599 8.15405C968.155 8.15405 968.647 8.24487 969.075 8.42651C969.503 8.60815 969.869 8.8689 970.174 9.20874C970.484 9.54858 970.733 9.95288 970.921 10.4216C971.114 10.8904 971.255 11.4119 971.343 11.9861V14.3328C971.272 14.8718 971.144 15.3669 970.956 15.8181C970.769 16.2634 970.52 16.6531 970.209 16.9871C969.898 17.3152 969.523 17.5701 969.084 17.7517C968.65 17.9275 968.149 18.0154 967.581 18.0154C967.019 18.0154 966.512 17.8982 966.061 17.6638C965.609 17.4294 965.226 17.0984 964.909 16.6707C964.593 16.2371 964.35 15.7244 964.18 15.1326C964.01 14.5408 963.925 13.8904 963.925 13.1814ZM964.979 12.9968V13.1814C964.979 13.738 965.035 14.2537 965.146 14.7283C965.258 15.2029 965.428 15.616 965.656 15.9675C965.885 16.3191 966.175 16.5945 966.526 16.7937C966.878 16.9929 967.294 17.0925 967.774 17.0925C968.378 17.0925 968.885 16.9783 969.295 16.7498C969.705 16.5154 970.033 16.2078 970.279 15.8269C970.525 15.4402 970.704 15.0183 970.815 14.5613V11.8279C970.745 11.5173 970.643 11.2009 970.508 10.8787C970.373 10.5564 970.188 10.2605 969.954 9.99097C969.726 9.71558 969.433 9.49585 969.075 9.33179C968.724 9.16187 968.296 9.0769 967.792 9.0769C967.306 9.0769 966.887 9.17651 966.535 9.37573C966.184 9.57495 965.891 9.85327 965.656 10.2107C965.428 10.5623 965.258 10.9753 965.146 11.45C965.035 11.9246 964.979 12.4402 964.979 12.9968ZM980.527 15.9939V4.3396H981.582V17.8396H980.598L980.527 15.9939ZM973.927 13.1814V12.9968C973.927 12.2585 974.012 11.5935 974.182 11.0017C974.352 10.4041 974.595 9.89429 974.911 9.47241C975.233 9.04468 975.62 8.71948 976.071 8.49683C976.522 8.26831 977.032 8.15405 977.601 8.15405C978.157 8.15405 978.649 8.24487 979.077 8.42651C979.505 8.60815 979.871 8.8689 980.176 9.20874C980.486 9.54858 980.735 9.95288 980.923 10.4216C981.116 10.8904 981.257 11.4119 981.345 11.9861V14.3328C981.274 14.8718 981.146 15.3669 980.958 15.8181C980.771 16.2634 980.521 16.6531 980.211 16.9871C979.9 17.3152 979.525 17.5701 979.086 17.7517C978.652 17.9275 978.151 18.0154 977.583 18.0154C977.021 18.0154 976.514 17.8982 976.062 17.6638C975.611 17.4294 975.228 17.0984 974.911 16.6707C974.595 16.2371 974.352 15.7244 974.182 15.1326C974.012 14.5408 973.927 13.8904 973.927 13.1814ZM974.981 12.9968V13.1814C974.981 13.738 975.037 14.2537 975.148 14.7283C975.26 15.2029 975.43 15.616 975.658 15.9675C975.887 16.3191 976.177 16.5945 976.528 16.7937C976.88 16.9929 977.296 17.0925 977.776 17.0925C978.38 17.0925 978.887 16.9783 979.297 16.7498C979.707 16.5154 980.035 16.2078 980.281 15.8269C980.527 15.4402 980.706 15.0183 980.817 14.5613V11.8279C980.747 11.5173 980.645 11.2009 980.51 10.8787C980.375 10.5564 980.19 10.2605 979.956 9.99097C979.728 9.71558 979.435 9.49585 979.077 9.33179C978.726 9.16187 978.298 9.0769 977.794 9.0769C977.308 9.0769 976.889 9.17651 976.537 9.37573C976.186 9.57495 975.893 9.85327 975.658 10.2107C975.43 10.5623 975.26 10.9753 975.148 11.45C975.037 11.9246 974.981 12.4402 974.981 12.9968ZM985.52 8.32983V17.8396H984.474V8.32983H985.52ZM984.289 5.57886C984.289 5.37964 984.351 5.21265 984.474 5.07788C984.603 4.93726 984.778 4.86694 985.001 4.86694C985.224 4.86694 985.399 4.93726 985.528 5.07788C985.663 5.21265 985.73 5.37964 985.73 5.57886C985.73 5.77222 985.663 5.93921 985.528 6.07983C985.399 6.2146 985.224 6.28198 985.001 6.28198C984.778 6.28198 984.603 6.2146 984.474 6.07983C984.351 5.93921 984.289 5.77222 984.289 5.57886ZM989.439 10.3601V17.8396H988.394V8.32983H989.396L989.439 10.3601ZM989.202 12.4958L988.736 12.2322C988.771 11.6697 988.886 11.1423 989.079 10.6501C989.272 10.158 989.533 9.72437 989.861 9.34937C990.195 8.97437 990.585 8.6814 991.03 8.47046C991.481 8.25952 991.979 8.15405 992.524 8.15405C992.999 8.15405 993.424 8.21851 993.799 8.34741C994.174 8.47632 994.493 8.6814 994.757 8.96265C995.021 9.2439 995.22 9.60425 995.354 10.0437C995.495 10.4832 995.565 11.0193 995.565 11.6521V17.8396H994.511V11.6433C994.511 10.9871 994.42 10.4744 994.238 10.1052C994.057 9.73022 993.799 9.46362 993.465 9.30542C993.131 9.14722 992.735 9.06812 992.278 9.06812C991.774 9.06812 991.332 9.17944 990.951 9.4021C990.576 9.6189 990.26 9.90308 990.002 10.2546C989.75 10.6003 989.557 10.9724 989.422 11.3708C989.287 11.7634 989.214 12.1384 989.202 12.4958Z" fill="#E6E1E5"/>
<line x1="1011" y1="12.5" x2="1308" y2="12.5" stroke="url(#paint1_linear_111_1451)"/>
<defs>
<linearGradient id="paint0_linear_111_1451" x1="895" y1="14.0064" x2="-8.79791e-08" y2="14.0064" gradientUnits="userSpaceOnUse">
<stop stop-color="#E6E1E5"/>
<stop offset="1" stop-color="#E6E1E5" stop-opacity="0"/>
</linearGradient>
<linearGradient id="paint1_linear_111_1451" x1="1011" y1="13" x2="1308" y2="13" gradientUnits="userSpaceOnUse">
<stop stop-color="#E6E1E5"/>
<stop offset="1" stop-color="#E6E1E5" stop-opacity="0"/>
</linearGradient>
</defs>
</svg>
